<mxfile host="app.diagrams.net" agent="Mozilla/5.0 (Windows NT 10.0; Win64; x64) AppleWebKit/537.36 (KHTML, like Gecko) Chrome/130.0.0.0 Safari/537.36 Edg/130.0.0.0" version="24.7.17">
  <diagram name="Page-1" id="uGBQgr7I4nN1QDjtOcjy">
    <mxGraphModel dx="1050" dy="577" grid="1" gridSize="10" guides="1" tooltips="1" connect="1" arrows="1" fold="1" page="1" pageScale="1" pageWidth="850" pageHeight="1100" math="0" shadow="0">
      <root>
        <mxCell id="0" />
        <mxCell id="1" parent="0" />
        <mxCell id="QRMq3N5LrS6TsU7Mpn1u-5" style="edgeStyle=orthogonalEdgeStyle;rounded=0;orthogonalLoop=1;jettySize=auto;html=1;exitX=0.5;exitY=1;exitDx=0;exitDy=0;entryX=0.5;entryY=0;entryDx=0;entryDy=0;" edge="1" parent="1" source="QRMq3N5LrS6TsU7Mpn1u-1" target="QRMq3N5LrS6TsU7Mpn1u-3">
          <mxGeometry relative="1" as="geometry" />
        </mxCell>
        <mxCell id="QRMq3N5LrS6TsU7Mpn1u-6" style="edgeStyle=orthogonalEdgeStyle;rounded=0;orthogonalLoop=1;jettySize=auto;html=1;exitX=0;exitY=1;exitDx=0;exitDy=0;entryX=0.5;entryY=0;entryDx=0;entryDy=0;" edge="1" parent="1" source="QRMq3N5LrS6TsU7Mpn1u-1" target="QRMq3N5LrS6TsU7Mpn1u-2">
          <mxGeometry relative="1" as="geometry" />
        </mxCell>
        <mxCell id="QRMq3N5LrS6TsU7Mpn1u-8" style="edgeStyle=orthogonalEdgeStyle;rounded=0;orthogonalLoop=1;jettySize=auto;html=1;exitX=1;exitY=1;exitDx=0;exitDy=0;entryX=0.5;entryY=0;entryDx=0;entryDy=0;" edge="1" parent="1" source="QRMq3N5LrS6TsU7Mpn1u-1" target="QRMq3N5LrS6TsU7Mpn1u-4">
          <mxGeometry relative="1" as="geometry" />
        </mxCell>
        <mxCell id="QRMq3N5LrS6TsU7Mpn1u-1" value="Recommender systems" style="rounded=1;whiteSpace=wrap;html=1;fillColor=#dae8fc;strokeColor=none;" vertex="1" parent="1">
          <mxGeometry x="360" y="180" width="120" height="60" as="geometry" />
        </mxCell>
        <mxCell id="QRMq3N5LrS6TsU7Mpn1u-2" value="Content-based methods" style="rounded=1;whiteSpace=wrap;html=1;fillColor=#d5e8d4;strokeColor=none;" vertex="1" parent="1">
          <mxGeometry x="200" y="280" width="120" height="60" as="geometry" />
        </mxCell>
        <mxCell id="QRMq3N5LrS6TsU7Mpn1u-13" style="edgeStyle=orthogonalEdgeStyle;rounded=0;orthogonalLoop=1;jettySize=auto;html=1;exitX=0.25;exitY=1;exitDx=0;exitDy=0;entryX=0.5;entryY=0;entryDx=0;entryDy=0;" edge="1" parent="1" source="QRMq3N5LrS6TsU7Mpn1u-3" target="QRMq3N5LrS6TsU7Mpn1u-9">
          <mxGeometry relative="1" as="geometry" />
        </mxCell>
        <mxCell id="QRMq3N5LrS6TsU7Mpn1u-14" style="edgeStyle=orthogonalEdgeStyle;rounded=0;orthogonalLoop=1;jettySize=auto;html=1;exitX=0.75;exitY=1;exitDx=0;exitDy=0;entryX=0.5;entryY=0;entryDx=0;entryDy=0;" edge="1" parent="1" source="QRMq3N5LrS6TsU7Mpn1u-3" target="QRMq3N5LrS6TsU7Mpn1u-10">
          <mxGeometry relative="1" as="geometry" />
        </mxCell>
        <mxCell id="QRMq3N5LrS6TsU7Mpn1u-3" value="Collaborative filtering methods" style="rounded=1;whiteSpace=wrap;html=1;fillColor=#fff2cc;strokeColor=none;" vertex="1" parent="1">
          <mxGeometry x="360" y="280" width="120" height="60" as="geometry" />
        </mxCell>
        <mxCell id="QRMq3N5LrS6TsU7Mpn1u-4" value="Hybrid methods" style="rounded=1;whiteSpace=wrap;html=1;fillColor=#f8cecc;strokeColor=none;" vertex="1" parent="1">
          <mxGeometry x="520" y="280" width="120" height="60" as="geometry" />
        </mxCell>
        <mxCell id="QRMq3N5LrS6TsU7Mpn1u-9" value="Model-based" style="rounded=1;whiteSpace=wrap;html=1;fillColor=#fff2cc;strokeColor=none;" vertex="1" parent="1">
          <mxGeometry x="280" y="380" width="120" height="40" as="geometry" />
        </mxCell>
        <mxCell id="QRMq3N5LrS6TsU7Mpn1u-15" style="edgeStyle=orthogonalEdgeStyle;rounded=0;orthogonalLoop=1;jettySize=auto;html=1;exitX=0.25;exitY=1;exitDx=0;exitDy=0;entryX=0.5;entryY=0;entryDx=0;entryDy=0;" edge="1" parent="1" source="QRMq3N5LrS6TsU7Mpn1u-10" target="QRMq3N5LrS6TsU7Mpn1u-11">
          <mxGeometry relative="1" as="geometry" />
        </mxCell>
        <mxCell id="QRMq3N5LrS6TsU7Mpn1u-16" style="edgeStyle=orthogonalEdgeStyle;rounded=0;orthogonalLoop=1;jettySize=auto;html=1;exitX=0.75;exitY=1;exitDx=0;exitDy=0;entryX=0.5;entryY=0;entryDx=0;entryDy=0;" edge="1" parent="1" source="QRMq3N5LrS6TsU7Mpn1u-10" target="QRMq3N5LrS6TsU7Mpn1u-12">
          <mxGeometry relative="1" as="geometry" />
        </mxCell>
        <mxCell id="QRMq3N5LrS6TsU7Mpn1u-10" value="Memory-based" style="rounded=1;whiteSpace=wrap;html=1;fillColor=#fff2cc;strokeColor=none;" vertex="1" parent="1">
          <mxGeometry x="440" y="380" width="120" height="40" as="geometry" />
        </mxCell>
        <mxCell id="QRMq3N5LrS6TsU7Mpn1u-11" value="User-based" style="rounded=1;whiteSpace=wrap;html=1;fillColor=#fff2cc;strokeColor=none;" vertex="1" parent="1">
          <mxGeometry x="360" y="460" width="120" height="40" as="geometry" />
        </mxCell>
        <mxCell id="QRMq3N5LrS6TsU7Mpn1u-12" value="Item-based" style="rounded=1;whiteSpace=wrap;html=1;fillColor=#fff2cc;strokeColor=none;" vertex="1" parent="1">
          <mxGeometry x="520" y="460" width="120" height="40" as="geometry" />
        </mxCell>
      </root>
    </mxGraphModel>
  </diagram>
</mxfile>
